<?xml version="1.0" standalone="no"?>
<!DOCTYPE svg PUBLIC "-//W3C//DTD SVG 20010904//EN"
 "http://www.w3.org/TR/2001/REC-SVG-20010904/DTD/svg10.dtd">
<svg version="1.0" xmlns="http://www.w3.org/2000/svg"
 width="474.000000pt" height="370.000000pt" viewBox="0 0 474.000000 370.000000"
 preserveAspectRatio="xMidYMid meet">

<g transform="translate(0.000000,370.000000) scale(0.100000,-0.100000)"
fill="#000000" stroke="none">
<path d="M1224 3055 c-22 -22 -24 -32 -24 -117 0 -51 3 -143 6 -204 l7 -111
34 10 33 10 -6 135 c-9 170 -15 164 145 157 64 -3 265 -10 446 -15 182 -6 358
-13 393 -16 34 -3 62 -2 62 3 0 4 -26 28 -57 53 -31 24 -51 46 -45 48 7 2 10
8 6 13 -7 12 55 11 135 -2 99 -16 97 -14 57 -61 -20 -23 -36 -45 -36 -48 0 -9
78 -20 136 -20 45 0 74 -24 74 -62 0 -25 46 -24 60 1 5 11 10 51 10 89 0 88
-17 112 -80 118 -270 23 -311 27 -298 36 8 5 -10 6 -47 1 -75 -10 -503 -10
-778 -1 l-208 8 -25 -25z"/>
<path d="M4115 3074 c-11 -3 -94 -8 -184 -12 -204 -10 -203 -10 -200 -141 l2
-86 -74 -6 c-41 -4 -150 -7 -244 -9 -93 -1 -181 -6 -195 -11 -15 -5 51 -6 160
-3 202 6 216 3 208 -48 -3 -21 -9 -23 -88 -30 -47 -3 -131 -6 -187 -7 -56 -1
-105 -5 -108 -11 -4 -6 51 -11 157 -12 90 -1 172 -2 183 -3 11 -1 59 -3 107
-4 l86 -1 -5 -31 c-3 -18 2 -40 12 -55 14 -22 21 -24 105 -24 l90 0 1 -37 c4
-112 5 -129 12 -140 5 -7 5 -19 0 -25 -4 -7 -6 -41 -4 -76 3 -71 -15 -112 -50
-112 -25 0 -74 -36 -60 -44 6 -4 15 3 21 15 9 15 15 18 23 10 6 -6 35 -11 64
-11 45 0 53 -3 53 -19 0 -31 24 -42 87 -39 56 3 58 4 67 35 5 17 20 36 33 42
26 12 63 67 63 94 0 15 -11 17 -88 17 -123 0 -126 3 -123 121 3 83 5 109 10
157 1 8 20 12 60 12 96 0 97 3 107 302 5 169 4 177 -15 187 -19 11 -46 12 -86
5z m33 -111 c5 -10 10 -73 10 -140 2 -139 -4 -153 -66 -154 -20 0 -86 -4 -147
-8 -101 -8 -145 -2 -145 17 0 4 70 8 156 9 85 1 159 5 165 8 5 4 9 65 9 137
l0 131 -38 -7 c-21 -3 -77 -9 -126 -12 -55 -5 -90 -12 -93 -20 -4 -12 80 -136
97 -142 5 -2 33 29 62 67 29 39 56 71 61 71 14 0 1 -25 -50 -94 -69 -93 -78
-91 -162 30 -62 91 -56 98 104 113 143 13 153 13 163 -6z m-328 -78 c0 -30 -4
-55 -10 -55 -5 0 -10 25 -10 55 0 30 5 55 10 55 6 0 10 -25 10 -55z m202 -387
c-7 -7 -12 -8 -12 -2 0 14 12 26 19 19 2 -3 -1 -11 -7 -17z m-12 -27 c0 -12
-20 -25 -27 -18 -7 7 6 27 18 27 5 0 9 -4 9 -9z m-30 -40 c0 -6 -4 -13 -10
-16 -5 -3 -10 1 -10 9 0 9 5 16 10 16 6 0 10 -4 10 -9z"/>
<path d="M1837 2870 c-32 -11 -62 -18 -68 -15 -5 4 -9 3 -7 -2 1 -4 -24 -34
-55 -65 -31 -31 -57 -62 -57 -68 0 -6 -5 -8 -12 -4 -6 4 -8 3 -4 -4 3 -6 -1
-38 -11 -72 -13 -50 -15 -71 -6 -118 6 -31 14 -64 18 -73 4 -11 -3 -19 -27
-27 -135 -47 -195 -69 -206 -76 -7 -4 -43 -18 -80 -30 -43 -15 -66 -28 -65
-37 2 -11 -10 -14 -46 -14 -27 0 -47 4 -44 8 3 5 -6 20 -18 34 -88 94 -289
119 -421 52 -59 -30 -130 -88 -122 -101 5 -7 2 -8 -5 -4 -15 9 -40 -21 -41
-47 0 -10 -4 -15 -10 -12 -14 9 -13 -1 6 -38 l15 -32 -21 25 c-15 17 -20 19
-16 8 7 -22 -3 -50 -15 -42 -5 3 -12 -2 -15 -10 -3 -9 -11 -13 -17 -9 -6 3 -7
1 -3 -5 4 -6 2 -21 -4 -33 -7 -11 -9 -23 -6 -26 3 -4 11 8 17 25 6 18 15 32
21 32 5 0 6 4 3 10 -3 6 1 7 10 3 9 -3 13 -9 8 -12 -19 -13 -54 -71 -48 -80 3
-5 0 -13 -6 -17 -7 -4 -9 -3 -6 3 4 6 -3 19 -16 29 -21 19 -21 19 -7 0 12 -15
12 -20 2 -23 -6 -3 -9 -9 -6 -15 4 -6 0 -14 -7 -19 -9 -5 -10 -9 -2 -9 14 0
113 78 113 89 0 5 -5 11 -11 13 -7 2 -5 9 5 17 14 12 16 11 10 -5 -5 -15 -4
-16 5 -8 7 6 15 27 18 45 3 19 9 41 14 49 7 11 8 8 4 -10 -5 -22 -4 -22 11 5
9 17 28 42 41 57 14 14 22 31 19 36 -4 6 -1 14 5 18 8 4 9 3 5 -4 -4 -7 -2
-12 4 -12 6 0 13 7 16 15 3 8 14 17 25 20 11 4 16 11 13 18 -4 7 -4 9 0 5 4
-3 35 7 69 23 105 49 211 34 305 -46 43 -36 28 -58 -17 -26 -17 12 -36 19 -41
16 -6 -4 -9 -1 -8 5 4 18 -69 42 -127 42 -71 0 -150 -38 -216 -103 -56 -56
-114 -153 -102 -171 3 -6 1 -8 -5 -4 -13 8 -54 -43 -45 -57 3 -6 1 -7 -6 -3
-15 10 -43 -13 -34 -27 3 -5 2 -7 -3 -4 -5 3 -41 -3 -78 -13 -38 -11 -74 -17
-80 -13 -6 3 -8 3 -4 -2 4 -4 -3 -22 -16 -39 -42 -56 -54 -90 -60 -176 -9
-109 15 -364 38 -409 9 -17 28 -37 41 -43 19 -9 43 -59 126 -264 55 -140 104
-254 108 -254 3 0 16 23 27 52 l21 52 -44 96 c-57 121 -64 140 -54 140 4 0 29
-47 56 -105 26 -58 50 -103 53 -101 18 18 141 333 136 348 -3 11 0 18 8 18 17
0 183 393 169 398 -6 2 -11 10 -11 18 0 12 42 14 255 14 220 0 255 -2 255 -15
0 -12 -14 -15 -68 -15 l-67 0 -69 -162 c-38 -90 -79 -188 -93 -218 l-24 -55 1
-385 c0 -234 4 -388 10 -394 10 -10 12 115 10 547 0 103 3 177 8 177 16 0 174
-30 215 -41 l38 -10 -1 -167 c-3 -367 0 -513 10 -507 6 4 10 129 10 342 0 297
2 334 15 323 8 -7 15 -19 15 -27 0 -8 5 -11 12 -7 7 4 8 3 4 -4 -10 -16 12
-54 26 -46 7 4 8 3 4 -4 -10 -16 19 -69 74 -132 l48 -56 -15 -117 c-16 -129
-13 -161 18 -177 11 -6 118 -18 237 -25 119 -8 282 -19 362 -25 629 -43 688
-45 710 -25 11 10 20 23 20 29 0 6 23 30 50 54 28 24 50 50 50 58 0 7 4 14 9
14 22 0 102 212 86 228 -3 3 -5 -1 -5 -9 0 -8 -15 -26 -34 -41 -19 -15 -57
-67 -85 -115 l-51 -88 2 65 c1 45 -2 65 -10 64 -7 -1 -20 -2 -31 -2 -16 -2
-20 -14 -26 -79 -8 -86 -20 -120 -45 -128 -10 -3 -202 8 -426 25 -225 17 -474
35 -554 41 -248 17 -238 8 -221 180 16 157 32 283 36 287 1 2 45 -6 96 -18
216 -48 270 -60 389 -85 134 -28 169 -38 213 -62 25 -13 31 -13 50 0 12 8 30
32 41 53 10 22 22 47 27 56 5 10 9 30 9 46 0 15 4 32 9 38 11 11 39 214 46
334 7 112 10 120 45 120 22 0 29 -5 32 -22 3 -20 8 -23 43 -20 48 4 56 15 53
67 -3 33 -7 41 -25 43 -19 3 -22 10 -25 60 -3 48 -7 59 -25 67 -16 7 -23 18
-23 37 0 28 -33 113 -54 138 -7 9 -20 85 -30 182 -24 243 -74 418 -127 451
-13 8 -24 6 -45 -9 -33 -22 -174 -74 -174 -65 0 4 6 13 13 19 8 9 12 44 12
105 -1 74 -5 101 -23 138 -72 148 -246 222 -395 169z m170 -16 c-3 -3 -12 -4
-19 -1 -8 3 -5 6 6 6 11 1 17 -2 13 -5z m-188 -18 c-2 -2 -15 -9 -29 -15 -24
-11 -24 -11 -6 3 16 13 49 24 35 12z m237 -30 c84 -39 154 -145 154 -235 0
-66 -62 -197 -88 -188 -4 1 -27 -6 -52 -14 -25 -9 -66 -22 -92 -29 -27 -7 -48
-17 -48 -21 0 -5 -17 -9 -37 -9 -59 0 -136 50 -180 116 -32 48 -38 66 -41 124
-5 81 7 123 53 183 71 93 218 126 331 73z m-335 -42 c-22 -25 -49 -69 -60 -98
-11 -28 -20 -44 -20 -36 -1 29 40 105 77 143 50 51 52 46 3 -9z m-41 -394 c19
-23 50 -50 69 -61 l34 -20 -24 -13 c-13 -7 -67 -27 -119 -44 -52 -18 -104 -36
-115 -41 -47 -21 -127 -41 -137 -35 -7 4 -8 3 -4 -4 4 -7 3 -12 -3 -12 -5 0
-17 -3 -27 -7 -17 -6 -17 5 2 70 4 11 -2 20 -17 25 -19 8 -14 12 43 35 112 45
227 102 228 113 0 11 20 34 30 34 3 0 21 -18 40 -40z m590 1 c0 -5 -27 -18
-61 -30 -37 -12 -59 -16 -57 -9 3 7 26 20 54 29 59 21 64 22 64 10z m-200 -31
c-8 -5 -19 -10 -25 -10 -5 0 -3 5 5 10 8 5 20 10 25 10 6 0 3 -5 -5 -10z m-93
-26 c-3 -3 -12 -4 -19 -1 -8 3 -5 6 6 6 11 1 17 -2 13 -5z m-832 -32 c-3 -3
-11 0 -18 7 -9 10 -8 11 6 5 10 -3 15 -9 12 -12z m-47 -36 c-2 -1 -14 -10 -27
-21 l-24 -20 11 21 c6 12 9 24 6 27 -3 3 4 3 15 0 12 -3 20 -6 19 -7z m812 7
c0 -9 -582 -194 -589 -188 -2 3 -2 7 1 10 8 8 551 183 571 184 9 1 17 -2 17
-6z m-1150 -22 c0 -5 -11 -11 -25 -13 -14 -3 -25 -3 -25 -1 0 3 34 19 48 22 1
1 2 -3 2 -8z m347 -17 c-16 -9 -31 -13 -34 -10 -3 3 5 10 18 15 37 15 47 12
16 -5z m-60 -36 c-3 -8 -6 -5 -6 6 -1 11 2 17 5 13 3 -3 4 -12 1 -19z m-363
-22 c-3 -9 -10 -16 -15 -16 -5 0 -4 9 3 20 14 22 21 20 12 -4z m411 -4 c-3 -3
-11 0 -18 7 -9 10 -8 11 6 5 10 -3 15 -9 12 -12z m-33 -12 c-2 -8 3 -10 14 -6
13 5 14 4 6 -7 -7 -8 -11 -16 -9 -18 1 -2 -3 1 -9 8 -6 7 -15 9 -20 5 -4 -4
-3 0 4 10 9 11 9 18 2 21 -6 3 -5 4 2 3 7 -2 12 -9 10 -16z m69 -27 c-12 -20
-14 -14 -5 12 4 9 9 14 11 11 3 -2 0 -13 -6 -23z m-494 -2 c0 -11 -5 -18 -9
-15 -4 3 -5 11 -1 19 7 21 12 19 10 -4z m603 -70 c0 -12 -39 -25 -48 -16 -7 7
17 25 36 25 6 0 12 -4 12 -9z m-350 -41 c0 -5 -8 -10 -17 -10 -15 0 -16 2 -3
10 19 12 20 12 20 0z m200 -8 c0 -4 -32 -17 -70 -29 -82 -24 -90 -8 -9 18 61
20 79 23 79 11z m-243 -8 c-3 -3 -12 -4 -19 -1 -8 3 -5 6 6 6 11 1 17 -2 13
-5z m63 -9 c0 -2 -36 -15 -81 -30 -63 -21 -86 -25 -102 -17 -21 10 -21 11 4
11 14 1 29 4 33 9 14 13 146 38 146 27z m-330 -16 c0 -11 -47 -12 -53 -1 -3 4
8 7 24 8 16 1 29 -3 29 -7z m1903 -50 c60 -16 114 -72 133 -135 8 -30 13 -60
11 -67 -5 -13 -8 -7 -26 59 -23 85 -91 133 -188 134 -29 0 -53 5 -53 10 0 13
75 13 123 -1z m-1633 -5 c0 -5 -63 -34 -75 -34 -16 0 -1 20 23 28 31 12 52 14
52 6z m-195 -99 l0 -30 -154 -3 c-149 -2 -182 3 -166 27 4 8 11 6 22 -4 13
-13 39 -16 152 -13 120 3 136 5 139 21 3 16 -9 17 -147 17 -97 0 -151 4 -151
10 0 7 53 10 153 8 l152 -3 0 -30z m400 -45 c3 -5 -3 -10 -15 -10 -12 0 -18 5
-15 10 3 6 10 10 15 10 5 0 12 -4 15 -10z m225 -30 c0 -5 -7 -10 -15 -10 -8 0
-15 5 -15 10 0 6 7 10 15 10 8 0 15 -4 15 -10z m1188 -52 c3 -39 0 -49 -18
-58 -11 -6 -35 -10 -53 -8 -29 3 -32 6 -35 40 -5 59 11 80 61 76 l42 -3 3 -47z
m-1834 20 c8 -13 8 -23 0 -35 -10 -16 -30 -18 -155 -19 -79 -1 -150 1 -156 3
-15 6 -17 43 -3 43 6 0 10 -7 10 -15 0 -13 23 -15 145 -15 138 0 145 1 145 20
0 19 -7 20 -145 20 -93 0 -145 4 -145 10 0 7 51 10 146 8 127 -3 148 -5 158
-20z m24 -160 l-3 -33 -156 -3 c-140 -2 -157 -1 -163 14 -4 10 -2 22 4 28 7 7
10 5 10 -7 0 -16 13 -17 148 -15 123 3 147 5 147 18 0 12 -26 16 -150 20
l-150 6 158 2 158 2 -3 -32z m1859 -104 c-3 -3 -12 -4 -19 -1 -8 3 -5 6 6 6
11 1 17 -2 13 -5z m38 -14 c3 -5 1 -10 -4 -10 -6 0 -11 5 -11 10 0 6 2 10 4
10 3 0 8 -4 11 -10z m-1872 -19 c5 -5 7 -19 5 -32 -3 -24 -3 -24 -161 -27
-135 -2 -158 0 -163 13 -4 9 -3 19 1 23 4 4 10 1 12 -5 3 -10 43 -13 149 -13
137 0 144 1 144 20 0 19 -7 20 -145 20 -80 0 -145 4 -145 8 0 11 291 5 303 -7z
m-183 -245 c-1 -19 -2 -19 -15 4 -20 35 -19 62 0 36 8 -11 15 -29 15 -40z
m1099 -100 l45 -13 -3 -64 c-4 -111 -7 -111 -67 -18 -29 46 -54 90 -54 97 0
15 24 15 79 -2z"/>
<path d="M1451 2781 c-7 -5 -21 -6 -31 -4 -26 7 -59 -54 -35 -63 10 -4 15 -19
15 -45 0 -29 5 -41 21 -49 29 -16 49 -5 49 25 0 20 -5 25 -25 25 -28 0 -34 24
-12 54 12 16 17 17 36 6 32 -17 49 0 33 35 -12 26 -27 31 -51 16z"/>
<path d="M2595 2680 c-3 -5 -2 -10 4 -10 5 0 13 5 16 10 3 6 2 10 -4 10 -5 0
-13 -4 -16 -10z"/>
<path d="M2622 2660 c-12 -16 -22 -41 -22 -55 0 -22 4 -25 35 -25 l35 0 0 55
c0 64 -14 71 -48 25z"/>
<path d="M3470 2340 c-12 -8 -12 -10 3 -16 9 -3 17 -11 17 -17 0 -6 -3 -7 -7
-4 -3 4 -12 2 -20 -5 -11 -8 -12 -7 -7 6 3 9 2 16 -3 16 -16 0 -64 -56 -56
-65 5 -4 1 -6 -7 -3 -9 3 -28 -14 -51 -46 -54 -75 -131 -235 -84 -172 8 11 15
15 15 9 0 -6 -7 -16 -15 -23 -8 -7 -15 -21 -15 -32 0 -10 -4 -17 -9 -14 -10 7
-32 -74 -24 -87 3 -6 5 -39 4 -74 -2 -46 1 -63 9 -58 6 4 9 14 5 24 -5 12 -4
13 6 4 9 -9 10 -28 1 -79 -12 -70 -9 -89 11 -78 7 4 8 3 4 -2 -5 -5 -14 -9
-20 -9 -7 0 -13 -11 -15 -25 -5 -42 -12 -54 -23 -43 -7 7 -6 25 2 56 14 57 9
76 -13 54 -13 -14 -16 -42 -17 -159 0 -79 -3 -185 -6 -235 -5 -77 -3 -97 10
-115 l17 -23 -5 27 c-2 16 -1 67 4 115 5 53 4 94 -2 105 -7 14 -6 18 6 18 8 0
15 9 15 20 0 10 9 41 19 68 15 38 17 52 8 61 -9 10 -9 12 2 9 7 -2 21 11 30
28 15 31 19 32 99 39 83 7 112 20 112 52 0 13 -8 15 -44 10 -34 -5 -50 -2 -66
11 -20 16 -21 23 -15 90 5 48 12 72 20 72 8 0 16 6 18 13 3 7 6 5 6 -5 1 -10
-6 -18 -14 -18 -8 0 -15 -5 -15 -11 0 -5 5 -7 10 -4 9 5 15 -16 11 -38 -1 -5
3 -6 9 -2 6 4 10 12 9 18 -3 26 2 35 20 40 15 4 18 1 14 -12 -4 -9 -3 -13 2
-9 4 4 16 3 26 -3 20 -11 27 -69 8 -69 -6 0 -3 -7 6 -16 9 -9 19 -13 23 -10 3
4 0 11 -7 15 -11 7 -9 13 7 29 17 17 18 24 8 43 -13 27 -54 51 -77 45 -22 -5
-20 22 2 29 10 3 35 -2 56 -11 21 -9 40 -17 43 -16 3 0 6 -7 7 -16 0 -9 4 -32
8 -50 6 -26 5 -33 -6 -32 -26 4 -39 0 -39 -11 0 -8 5 -8 15 1 9 8 15 9 15 2 0
-6 -5 -14 -10 -17 -8 -5 -7 -11 1 -21 9 -11 9 -14 -1 -14 -8 0 -11 -3 -7 -6
10 -10 68 36 77 62 10 24 24 31 34 15 5 -7 -4 -22 -46 -70 -10 -12 -6 -13 28
-8 21 4 44 7 50 7 18 0 34 48 34 101 0 47 1 50 30 56 44 8 80 55 75 96 -2 17
-6 58 -9 91 -4 54 -3 58 15 53 21 -6 25 3 7 21 -8 8 -8 15 2 26 19 24 5 46
-27 41 -15 -2 -76 -7 -135 -10 -128 -7 -133 -4 -143 89 -3 37 -11 66 -16 66
-6 0 -7 5 -4 10 8 12 4 12 -15 0z m-40 -65 c-7 -9 -15 -13 -17 -11 -7 7 7 26
19 26 6 0 6 -6 -2 -15z m-28 -62 c-5 -24 -6 -25 -12 -8 -6 16 2 33 16 35 1 0
-1 -12 -4 -27z m-45 -21 c-11 -12 -13 -22 -7 -32 5 -8 10 -22 9 -30 0 -8 -6
-1 -13 15 -11 25 -10 34 2 53 8 12 17 20 20 17 3 -3 -2 -13 -11 -23z m40 -64
c-2 -13 -4 -5 -4 17 -1 22 1 32 4 23 2 -10 2 -28 0 -40z m3 -63 c0 -8 -7 -15
-15 -15 -16 0 -20 12 -8 23 11 12 23 8 23 -8z m-59 -33 c-6 -11 -9 -27 -7 -34
13 -42 15 -68 6 -68 -6 0 -8 6 -5 13 4 6 -1 3 -9 -7 -9 -11 -16 -25 -16 -32 0
-7 -14 -17 -32 -23 -30 -11 -31 -11 -14 8 12 14 16 27 10 43 -6 19 -5 21 8 10
12 -10 17 -7 27 14 6 14 9 29 6 34 -6 9 25 73 32 66 2 -2 0 -13 -6 -24z m439
13 c0 -8 -4 -15 -10 -15 -5 0 -10 7 -10 15 0 8 5 15 10 15 6 0 10 -7 10 -15z
m-488 -47 c-3 -14 -1 -19 6 -14 8 5 10 1 5 -10 -6 -15 -7 -15 -15 1 -5 9 -7
23 -4 31 8 22 15 17 8 -8z m468 7 c0 -8 -4 -15 -10 -15 -5 0 -10 7 -10 15 0 8
5 15 10 15 6 0 10 -7 10 -15z m-250 -22 c37 -12 62 -29 91 -61 21 -25 39 -51
39 -58 0 -23 20 -15 30 12 6 14 15 22 21 19 7 -5 6 -12 -3 -23 -24 -31 -39
-63 -33 -72 8 -13 -20 -24 -35 -15 -8 5 -8 11 -1 19 14 16 -28 102 -47 98 -8
-1 -11 2 -8 7 10 16 -48 50 -95 56 -60 9 -71 13 -64 25 9 15 46 12 105 -7z
m-243 -15 c-3 -8 -6 -5 -6 6 -1 11 2 17 5 13 3 -3 4 -12 1 -19z m473 -3 c0 -8
-7 -15 -15 -15 -9 0 -12 6 -9 15 4 8 10 15 15 15 5 0 9 -7 9 -15z m-219 -48
c44 -30 81 -85 77 -117 -4 -35 -21 -28 -31 14 -12 48 -67 96 -112 96 -18 0
-36 4 -39 9 -18 29 61 28 105 -2z m199 14 c0 -12 -20 -25 -27 -18 -7 7 6 27
18 27 5 0 9 -4 9 -9z m-380 -21 c0 -5 -4 -10 -10 -10 -5 0 -10 5 -10 10 0 6 5
10 10 10 6 0 10 -4 10 -10z m-103 -82 c-3 -7 -5 -2 -5 12 0 14 2 19 5 13 2 -7
2 -19 0 -25z"/>
<path d="M3850 2119 c0 -5 5 -7 10 -4 6 3 10 8 10 11 0 2 -4 4 -10 4 -5 0 -10
-5 -10 -11z"/>
<path d="M3066 1897 c3 -10 9 -15 12 -12 3 3 0 11 -7 18 -10 9 -11 8 -5 -6z"/>
<path d="M3040 1890 c0 -5 5 -10 11 -10 5 0 7 5 4 10 -3 6 -8 10 -11 10 -2 0
-4 -4 -4 -10z"/>
<path d="M3430 1786 c0 -9 7 -16 16 -16 17 0 14 22 -4 28 -7 2 -12 -3 -12 -12z"/>
<path d="M3418 1738 c5 -5 16 -8 23 -6 8 3 3 7 -10 11 -17 4 -21 3 -13 -5z"/>
<path d="M2855 1700 c-8 -12 -11 -237 -4 -244 3 -3 37 -7 75 -9 l69 -3 -3 -52
c-4 -48 -2 -52 18 -52 12 0 18 -4 15 -11 -4 -6 -13 -8 -20 -5 -16 6 -25 -15
-25 -54 0 -20 6 -31 21 -35 11 -4 23 -4 26 -1 5 5 15 95 23 208 0 4 19 8 43
10 l42 3 0 125 0 125 -137 3 c-85 2 -139 -1 -143 -8z m210 -19 c-3 -2 7 -17
21 -34 22 -26 25 -37 20 -71 -3 -23 -7 -48 -8 -57 -1 -9 -7 -15 -14 -12 -6 2
-17 -3 -24 -12 -18 -22 -95 -20 -130 5 -34 24 -54 71 -46 106 4 15 21 40 38
56 28 26 37 29 89 26 32 -2 56 -5 54 -7z"/>
<path d="M2940 1640 c0 -5 7 -10 15 -10 8 0 15 5 15 10 0 6 -7 10 -15 10 -8 0
-15 -4 -15 -10z"/>
<path d="M2980 1640 c0 -5 7 -10 15 -10 8 0 15 5 15 10 0 6 -7 10 -15 10 -8 0
-15 -4 -15 -10z"/>
<path d="M3020 1640 c0 -5 5 -10 10 -10 6 0 10 5 10 10 0 6 -4 10 -10 10 -5 0
-10 -4 -10 -10z"/>
<path d="M2907 1613 c-4 -3 -7 -11 -7 -17 0 -6 5 -5 12 2 6 6 9 14 7 17 -3 3
-9 2 -12 -2z"/>
<path d="M2936 1613 c-11 -11 -6 -23 9 -23 8 0 15 4 15 9 0 13 -16 22 -24 14z"/>
<path d="M2980 1605 c0 -8 7 -15 15 -15 8 0 15 7 15 15 0 8 -7 15 -15 15 -8 0
-15 -7 -15 -15z"/>
<path d="M3030 1605 c0 -16 16 -20 24 -6 3 5 -1 11 -9 15 -9 3 -15 0 -15 -9z"/>
<path d="M3070 1610 c0 -5 5 -10 11 -10 5 0 7 5 4 10 -3 6 -8 10 -11 10 -2 0
-4 -4 -4 -10z"/>
<path d="M2900 1571 c0 -5 5 -13 10 -16 6 -3 10 -2 10 4 0 5 -4 13 -10 16 -5
3 -10 2 -10 -4z"/>
<path d="M2935 1558 c9 -30 23 -44 32 -33 5 4 3 10 -3 12 -7 2 -10 13 -7 23 4
14 0 20 -12 20 -12 0 -15 -5 -10 -22z"/>
<path d="M2980 1567 c0 -8 7 -14 15 -14 8 0 15 6 15 14 0 7 -7 13 -15 13 -8 0
-15 -6 -15 -13z"/>
<path d="M3030 1565 c0 -8 4 -15 9 -15 5 0 11 7 15 15 3 9 0 15 -9 15 -8 0
-15 -7 -15 -15z"/>
<path d="M3077 1573 c-4 -3 -7 -11 -7 -17 0 -6 5 -5 12 2 6 6 9 14 7 17 -3 3
-9 2 -12 -2z"/>
<path d="M2980 1530 c0 -5 7 -10 15 -10 8 0 15 5 15 10 0 6 -7 10 -15 10 -8 0
-15 -4 -15 -10z"/>
<path d="M3025 1529 c-4 -5 3 -8 14 -6 28 4 34 12 11 14 -11 1 -22 -2 -25 -8z"/>
<path d="M3480 1700 c-9 -6 -10 -10 -3 -10 6 0 15 5 18 10 8 12 4 12 -15 0z"/>
<path d="M958 1563 c-20 -43 -34 -81 -32 -85 2 -3 69 -7 148 -7 l144 -2 10 28
c5 15 22 54 36 86 l26 57 -149 0 -148 0 -35 -77z"/>
<path d="M894 1415 c-14 -35 -31 -76 -59 -140 l-15 -35 149 0 149 0 41 96 c22
52 41 100 41 105 0 5 -63 9 -146 9 l-145 0 -15 -35z"/>
<path d="M3951 1301 c-8 -5 -16 -19 -18 -31 -2 -17 1 -21 13 -16 23 9 44 -11
44 -41 0 -22 2 -24 15 -13 18 15 20 -1 3 -18 -9 -9 -9 -15 1 -24 10 -11 17 -7
36 16 l23 29 7 -34 c4 -19 14 -46 23 -61 17 -30 82 -61 107 -52 17 7 20 21 5
26 -5 2 -21 37 -36 78 -31 89 -47 110 -86 110 -17 0 -41 9 -55 20 -27 21 -59
25 -82 11z"/>
<path d="M915 1210 c11 -4 53 -15 94 -24 70 -15 74 -15 87 1 7 10 14 21 14 26
0 4 -48 7 -107 6 -66 0 -100 -4 -88 -9z"/>
<path d="M758 1098 c-20 -46 -34 -84 -33 -86 6 -7 155 -7 155 0 0 10 -79 168
-84 168 -2 0 -19 -37 -38 -82z"/>
<path d="M3157 1046 c-21 -16 -24 -58 -3 -50 13 5 32 52 24 59 -2 2 -11 -2
-21 -9z"/>
<path d="M3635 1043 c-16 -2 -35 -6 -42 -8 -10 -3 4 -49 55 -177 l12 -28 -145
0 c-80 0 -145 -4 -145 -9 0 -16 24 -29 59 -33 32 -3 35 -7 68 -87 l35 -84 -27
-69 c-34 -87 -27 -100 9 -16 l27 63 40 -80 c44 -90 44 -75 0 29 l-29 70 18 47
c11 26 27 65 37 86 l18 38 105 2 104 2 50 -47 c43 -40 50 -51 47 -79 l-3 -33
51 0 51 0 0 -104 0 -105 -37 -4 c-21 -2 3 -4 52 -4 50 0 71 2 48 4 l-43 4 0
105 0 104 56 0 56 0 -4 40 c-2 28 0 40 9 40 7 0 13 10 13 22 0 31 13 13 40
-56 21 -52 22 -62 10 -95 -22 -61 -22 -67 0 -28 24 43 34 41 50 -9 7 -19 14
-33 16 -31 3 2 -4 27 -15 55 l-20 50 37 86 c26 62 41 86 54 86 11 0 18 7 18
20 0 19 -7 20 -155 20 -92 0 -155 4 -155 10 0 5 -34 10 -76 12 l-75 3 -36 80
c-20 44 -41 87 -49 95 -13 15 -120 23 -189 13z m98 -98 c4 -8 2 -17 -3 -20 -6
-4 -10 -4 -10 -1 0 2 -3 11 -6 20 -3 9 -2 16 4 16 5 0 12 -7 15 -15z m-134
-168 c0 -7 -13 -39 -29 -72 l-28 -60 -21 48 c-40 92 -40 93 23 95 38 1 56 -3
55 -11z m688 -63 c-34 -86 -33 -86 -76 25 l-21 51 64 0 64 0 -31 -76z"/>
<path d="M707 968 c-8 -13 -25 -48 -37 -79 -20 -50 -21 -59 -9 -85 l14 -29
122 -3 122 -3 20 46 20 46 -31 65 -32 64 -88 0 c-80 0 -89 -2 -101 -22z"/>
<path d="M2973 970 c-23 -9 -32 -40 -12 -40 20 0 49 21 49 35 0 17 -6 18 -37
5z"/>
<path d="M962 810 c-48 -107 -122 -286 -122 -296 0 -33 121 -27 166 9 18 13
25 16 22 6 -13 -39 -114 -65 -179 -45 -23 7 -28 4 -37 -21 -5 -15 -13 -36 -17
-45 -6 -16 0 -18 52 -18 33 0 80 7 105 16 56 19 116 76 124 119 6 34 -21 122
-73 235 -29 63 -31 64 -41 40z"/>
<path d="M630 790 c0 -11 7 -20 15 -20 13 0 14 4 5 20 -6 11 -13 20 -15 20 -3
0 -5 -9 -5 -20z"/>
<path d="M600 725 c-7 -19 -2 -41 24 -102 l33 -78 53 -3 c40 -2 51 0 47 10 -2
7 -24 55 -47 106 -40 85 -45 92 -72 92 -21 0 -31 -6 -38 -25z"/>
<path d="M690 743 c1 -5 22 -51 48 -103 29 -59 54 -96 65 -98 17 -4 37 33 88
161 l19 47 -110 0 c-61 0 -110 -3 -110 -7z"/>
<path d="M680 514 c0 -16 43 -73 64 -88 24 -15 25 -15 41 28 10 25 14 49 10
55 -6 11 -115 16 -115 5z"/>
<path d="M3920 483 c0 -34 -8 -45 -40 -60 l-25 -12 27 0 c30 -1 52 24 63 72 6
21 4 27 -9 27 -11 0 -16 -9 -16 -27z"/>
<path d="M3462 435 c-17 -37 -14 -45 4 -12 9 16 14 31 11 33 -2 2 -9 -7 -15
-21z"/>
<path d="M3622 412 c4 -16 2 -16 66 -7 71 9 66 23 -8 21 -44 -1 -60 -5 -58
-14z"/>
<path d="M4165 419 c-4 -6 -5 -12 -2 -15 2 -3 7 2 10 11 7 17 1 20 -8 4z"/>
</g>
</svg>
